<svg version="1.1" xmlns="http://www.w3.org/2000/svg" xmlns:xlink="http://www.w3.org/1999/xlink" x="0px" y="0px"
	 viewBox="0 0 100 100" enable-background="new 0 0 100 100" xml:space="preserve">
<g id="solid">
	<g>
		<polygon points="7.5,31.5 10.1,34.3 11.3,31.5 		"/>
		<polygon points="65.5,93.7 65.7,89.9 62.9,90.9 		"/>
		<path d="M12.4,76.6c-0.5,0.4-0.6,0.9-0.2,1.4c0.4,0.5,1,0.6,1.5,0.2c0.4-0.3,0.5-0.6,0.7-1.3C13.5,76.4,12.9,76.2,12.4,76.6z"/>
		<path d="M5.3,42.7c-0.9-0.1-1.5,0.5-1.6,1.6l-0.3,2.2l2.9,0.3l0.3-2.2C6.6,43.6,6.2,42.8,5.3,42.7z"/>
		<path d="M51.4,93.8c-1.1,0-1.8,0.6-1.7,1.5c0,0.9,0.7,1.4,1.8,1.4l2.2-0.1l-0.1-2.9L51.4,93.8z"/>
		<path d="M80,77.6c-1.2,1.3-1.2,3,0.1,4.2c1.2,1.2,3,1.2,4.2-0.2l1.2-1.2l-4.3-4L80,77.6z"/>
		<path d="M85.4,14.6C75.9,5.2,63.4,0,50,0C36.6,0,24.1,5.2,14.6,14.6C5.2,24.1,0,36.6,0,50c0,13.4,5.2,25.9,14.6,35.4
			c9.4,9.4,22,14.6,35.4,14.6c13.4,0,25.9-5.2,35.4-14.6c9.4-9.4,14.6-22,14.6-35.4C100,36.6,94.8,24.1,85.4,14.6z M97.4,42.1
			l-7.2,1l0.6,4.5l-1.4,0.2l-0.8-6l8.5-1.2L97.4,42.1z M92.8,27.9l2.8,6.4l-1.3,0.6l-1.1-2.5l-6.6,2.8l-0.6-1.4l6.6-2.8l-1.1-2.5
			L92.8,27.9z M85.6,17.6l4,5l-1.1,0.8l-3-3.8l-1.8,1.4l2.7,3.4l-1.1,0.8l-2.7-3.4l-1.8,1.4l3.1,3.9l-1.1,0.8l-4-5.1L85.6,17.6z
			 M74.6,8.6l1.2,0.9l-2.1,2.9l3.4,2.4l2.1-2.9l1.2,0.9l-5,7.1l-1.2-0.9l2.1-3L73,13.5l-2.1,3l-1.2-0.9L74.6,8.6z M61.1,9.7
			c0.6,0.9,1.2,1.6,2.2,1.9c0.9,0.3,1.6,0.1,1.8-0.5c0.2-0.6,0-1-1.4-1.9c-1.6-1-2.4-1.9-1.9-3.4c0.5-1.4,2-2,3.6-1.4
			c1.2,0.4,2,1.1,2.6,2l-1.1,0.8c-0.5-0.8-1.2-1.3-1.9-1.6c-0.8-0.3-1.5,0-1.7,0.5c-0.2,0.6,0.1,1,1.5,2c1.6,1,2.3,1.9,1.8,3.3
			c-0.5,1.5-2,2-3.8,1.5c-1.2-0.4-2.3-1.3-3-2.5L61.1,9.7z M49.9,4.5c1,0,1.8,0.8,1.8,1.7c0,1-0.8,1.7-1.7,1.7
			c-0.9,0-1.7-0.8-1.7-1.7C48.2,5.3,48.9,4.5,49.9,4.5z M33.7,4.6c1.2-0.4,2.3-0.4,3.3,0L36.7,6c-0.9-0.3-1.8-0.3-2.5,0
			c-0.8,0.3-1.2,0.9-1,1.4C33.4,8,33.9,8.1,35.6,8c1.9-0.2,3,0.1,3.5,1.5c0.5,1.5-0.3,2.9-2,3.5c-1.2,0.4-2.6,0.4-3.9-0.1l0.5-1.3
			c1,0.4,1.9,0.5,2.9,0.1c0.9-0.3,1.3-0.9,1.1-1.5c-0.2-0.6-0.6-0.8-2.3-0.6c-1.9,0.2-3,0-3.6-1.5C31.3,6.6,32.1,5.2,33.7,4.6z
			 M25.6,8.4l0.8,1.2l-2.3,1.6l4.1,6L27,18l-4.1-6l-2.3,1.6l-0.8-1.2L25.6,8.4z M15.4,16.4l1.1,0.9L13.3,21l1.8,1.5l2.8-3.3l1.1,0.9
			l-2.8,3.3l2.7,2.3l-1,1.2l-6.6-5.6L15.4,16.4z M6.1,30.1l9.5,0L15,31.6l-2.3,0l-1.6,3.7l1.6,1.6L12,38.4l-6.5-6.9L6.1,30.1z
			 M2.3,44.1c0.2-2,1.4-3.1,3.1-2.9c1.4,0.2,2.2,1.1,2.4,2.3l3.5-1.9L11,43.4l-3.2,1.8L7.6,47l3,0.3l-0.2,1.5l-8.6-1L2.3,44.1z
			 M7.6,61.5c-2.4,0.4-4.7-1-5.2-3.6c-0.3-1.6,0.1-2.6,0.7-3.6l1.3,0.8c-0.5,0.8-0.8,1.6-0.6,2.6c0.3,1.6,1.8,2.6,3.5,2.3
			c1.7-0.3,2.8-1.7,2.5-3.3c-0.2-1-0.7-1.6-1.5-2.2l0.8-1.1c1.1,0.7,1.8,1.6,2.1,3.2C11.6,58.8,10,61,7.6,61.5z M18.5,77.8
			c-0.9,0.7-1.9,0.6-3,0c-0.2,0.8-0.5,1.3-1,1.6c-0.9,0.7-2.3,0.5-3.2-0.7c-0.8-1.1-0.6-2.4,0.3-3.1c0.9-0.7,1.9-0.5,2.9,0.2
			l0.3-2.1c-0.6,0-1.2,0.1-1.9,0.2l-0.2-1.3c0.8-0.1,1.5-0.2,2.3-0.2l0.3-1.9l1.3,0.4l-0.3,1.6c1,0.2,1.9,0.6,2.5,1.5
			C19.8,75.3,19.8,76.9,18.5,77.8z M32.3,87.9c-0.4-1-0.9-1.8-1.9-2.3c-0.8-0.4-1.5-0.3-1.9,0.2c-0.3,0.6-0.2,1,1.1,2.1
			c1.4,1.3,2.1,2.2,1.3,3.6c-0.7,1.3-2.3,1.6-3.8,0.8C26,91.8,25.3,91,24.9,90l1.3-0.6c0.4,0.9,0.9,1.5,1.6,1.9
			c0.8,0.4,1.5,0.3,1.7-0.2c0.3-0.6,0.1-1-1.1-2.2c-1.4-1.3-1.9-2.3-1.2-3.6c0.8-1.4,2.3-1.7,3.9-0.8c1.2,0.6,2,1.6,2.5,2.9
			L32.3,87.9z M42.2,97.6l-6.8-1.6l0.3-1.4l2.7,0.6l1.7-7l1.5,0.4l-1.7,7l2.7,0.6L42.2,97.6z M51.5,98.1c-2,0.1-3.2-0.9-3.3-2.6
			c-0.1-1.4,0.8-2.3,1.9-2.7l-2.5-3.2l1.8-0.1l2.2,2.9l1.9-0.1l-0.1-3l1.5-0.1l0.4,8.6L51.5,98.1z M66.7,95.1l-1.3,0.5l-6.5-6.9
			l1.5-0.5l1.5,1.7l3.8-1.4l0.1-2.3l1.5-0.5L66.7,95.1z M50,87.3c-20.6,0-37.3-16.7-37.3-37.3c0-20.6,16.7-37.3,37.3-37.3
			c20.6,0,37.3,16.7,37.3,37.3C87.3,70.6,70.6,87.3,50,87.3z M85.3,82.6c-1.9,2-4.5,2.1-6.3,0.4c-1.8-1.7-1.9-4.3,0-6.3l2.2-2.3
			l6.3,5.9L85.3,82.6z M94.3,68.8l-7.4,1.6l5.4,2.6l-0.6,1.3l-7.8-3.7l0.6-1.1l7.6-1.6l-5.5-2.7l0.6-1.3l7.8,3.7L94.3,68.8z
			 M88.4,60l0.2-1.6l2.2-0.6l0.6-4l-1.9-1.2l0.2-1.5l8.1,5l-0.2,1.4L88.4,60z"/>
		<polygon points="92.2,57.5 95.8,56.5 92.6,54.6 		"/>
		<path d="M16.2,73.8l-0.4,2.7c0.8,0.4,1.4,0.4,1.8,0.1c0.6-0.4,0.7-1.2,0.2-1.9C17.4,74.2,16.9,73.9,16.2,73.8z"/>
	</g>
</g>
<g id="c">
	<path class="c" d="M66.9,35c-3.7-0.1-7.5-0.3-11.2-0.2c-4.9,0.2-10.1,0.7-14.5,3c-1.6,0.8-3.1,1.9-4.3,3.3c-1,1.2-1.7,2.5-2.3,4
		c0,0,0-0.1,0-0.1c-0.8,2.5-1.4,5.1-1.2,7.7c0.2,1.7,0.6,3.3,1.3,4.9c1,2.1,2.5,4,4.1,5.6c3.6,3.4,8,5.9,12.6,7.8
		c4.6,2,9.5,3.4,14.4,4.5c2.4,0.5,4.8,0.9,7.2,1.2c-4.4,0.4-8.9,0.2-13.2-0.5c-5-0.8-9.9-2.2-14.5-4.3c-2.3-1.1-4.5-2.3-6.6-3.8
		c-1.4-1-2.8-2.1-4-3.5c-1.1-1.3-2.1-2.6-3-4.1c-0.5-0.8-0.9-1.7-1.2-2.6c-0.2-0.7-0.5-1.4-0.6-2.1c-0.6-2.7-0.7-5.5-0.1-8.2
		c0.3-1.5,0.7-3,1.4-4.4c0.9-2.2,2.3-4.2,4.1-5.7c3.9-3.4,9.1-4.6,14.1-4.8c4.4-0.2,8.8,0.4,13.1,1.2C63.9,34.3,65.4,34.6,66.9,35z"
		/>
</g>
<g id="s">
	<path class="s" d="M40.9,22.2c-1.4-0.1-2.8-0.3-4.3-0.3c-1,0-2,0.1-2.9,0.4c-0.9,0.3-1.8,0.7-2.3,1.6c-0.4,0.8-0.1,1.8,0.3,2.6
		c0.4,0.9,1,1.8,1.7,2.6c1,1.3,2.2,2.5,3.4,3.7c1.3,1.3,3,2.6,4.6,3.8c2,1.5,4.1,3,6.1,4.6c3.6,2.9,7.2,6.3,9.1,10.5
		c0.4,0.8,0.7,1.5,1,2.3c0.7,1.9,1,4.1,0.9,6.1c-0.2,4.6-2.2,9.1-5.5,12.3c-3.6,3.6-8.6,5.5-13.6,4.9c-4.9-0.5-9.3-3.3-12.6-6.9
		c-4.1-4.6-6.8-10.6-7.1-16.8c1.1,4.2,2.9,8.1,5.6,11.6c2.9,3.7,6.8,7,11.4,8.2c4.6,1.2,9.4,0,12.9-3.2c3.4-3.1,5.4-8,4.7-12.6
		c-0.2-1.1-0.4-2.1-0.8-3.2c0,0.1-0.1-0.3-0.2-0.3c-0.1-0.2-0.2-0.4-0.3-0.6c-0.4-0.8-0.8-1.6-1.3-2.4c-1.4-2.1-3.1-4-5-5.8
		c-3.8-3.5-8-6.5-11.6-10.3c-1.2-1.2-2.3-2.5-3.2-3.9c-1.3-1.9-2.8-4.3-2.5-6.7c0.4-2.5,3-3.5,5.2-3.5c2,0,4,0.6,5.9,1.1
		C40.7,22.2,40.8,22.2,40.9,22.2z"/>
</g>
<g id="a">
	<path  class="a" d="M66.6,63.5c-0.7-1.7-1.8-3.3-2.7-4.9c-1.2-2-2.5-4.1-3.7-6.2c-2.6-4.4-5-8.8-7.2-13.4c-1.1-2.3-2.1-4.7-2.9-7.1
		c-0.8-2.3-1.5-4.7-1.5-7.2c0-2.4,0.9-4.9,3.3-5.8c1.3-0.5,2.8-0.5,4.2-0.2c4.6,0.7,8.2,4.6,10.8,8.3c2.9,4.3,5,9.2,6.6,14.1
		c1.5,4.3,2.6,8.7,3.4,13.2c0.7,3.8,1.3,7.8,1,11.7c-0.2-1.9-0.7-3.7-1.2-5.5c-0.6-2.3-1.3-4.6-2-6.9c-1.6-4.9-3.4-9.7-5.5-14.4
		c-1.8-3.8-3.8-7.6-6.4-11c-2.2-2.8-5.1-5.5-8.8-5.5c0,0,0.1,0,0.1,0c-0.9,0-1.3,0.7-1.4,1.5c-0.1,1.2,0.1,2.5,0.3,3.6
		c0.5,2.6,1.4,5.1,2.3,7.5c1.8,4.8,3.9,9.6,5.9,14.3c1.1,2.5,2.2,4.9,3.2,7.4C65.1,59.1,66.1,61.2,66.6,63.5z"/>
</g>
<g id="c_1_">
	<path class="c" d="M35.2,37.6c3.9-3.4,9.1-4.6,14.1-4.8c4.4-0.2,8.8,0.4,13.1,1.2c1.5,0.3,3,0.6,4.4,1c-3.7-0.1-7.5-0.3-11.2-0.2
		c-4.9,0.2-10.1,0.7-14.5,3c-1.2,0.6-2.4,1.4-3.3,2.3"/>
</g>
</svg>
